<?xml version="1.0" encoding="UTF-8"?>
<svg id="Layer_1" data-name="Layer 1" xmlns="http://www.w3.org/2000/svg" viewBox="0 0 419.75 354.67">
  <defs>
    <style>
      .cls-1 {
        fill: #cc5c5c;
      }

      .cls-2 {
        fill: #2f1342;
      }

      .cls-3 {
        fill: #ef8362;
      }

      .cls-4 {
        fill: #634382;
      }
    </style>
  </defs>
  <rect class="cls-2" x="-95.79" y="-61.33" width="646.35" height="480" rx="57.36" ry="57.36"/>
  <g>
    <path class="cls-1" d="M181.33,209.65c0-3.33,0-6.05.02-6.05s0-.2-.02-.45v-.23c0-15.26,12.37-27.63,27.63-27.63s27.63,12.37,27.63,27.63v.23c-.02.25-.03.45-.02.45s.02,2.72.02,6.05v51.24c0,3.33,2.72,6.05,6.05,6.05h85.1c3.33,0,4.65-2.33,2.94-5.19l-56.49-94.07-6.23-10.38-56.49-94.07c-1.71-2.85-4.52-2.85-6.23,0l-56.49,94.07c-1.71,2.85-4.52,7.52-6.23,10.38l-56.49,94.07c-1.71,2.85-.39,5.19,2.94,5.19h86.3c3.33,0,6.05-2.72,6.05-6.05v-51.24Z"/>
    <polygon class="cls-4" points="235.47 267.46 333.79 267.46 271.08 162.75 265.1 153.61 235.47 206.78 235.47 267.46"/>
    <path class="cls-3" d="M145.64,162.75l-62.72,104.71h98.07v-64.16h.37s-.03-.3-.03-.53c0-9.84,5.16-18.38,12.91-23.28l-20.22-64.17-28.38,47.42Z"/>
  </g>
</svg>